<svg xmlns="http://www.w3.org/2000/svg" viewBox="0 0 222.45 140.92"><defs><style>.cls-1{fill:#00db92;}</style></defs><title>Logo</title><g id="Layer_2" data-name="Layer 2"><g id="Layer_1-2" data-name="Layer 1"><path d="M103.61,140.92H69.82L33,0H66.21L89,60.46l6.58,3.65L113.27,0H142l23.34,60.46h1.76L188.54,0h33.91L185.64,140.92H152L128.51,64.59h-1.76Z"/><path class="cls-1" d="M70.61,140.92H36.82L0,0H33.21L56,60.46h1.76L80.27,0H112l20.34,60.46h1.76L155.54,0h33.91L152.64,140.92H119L95.51,64.59H93.75Z"/><path d="M110.27,0H142l23.34,60.46h1.76L188.54,0h33.91L185.64,140.92H152L128.51,64.59h-1.76l-23.14,76.33H69.82"/></g></g></svg>