<svg xmlns="http://www.w3.org/2000/svg" viewBox="0 0 62.52 39.6"><defs><style>.cls-1{fill:#fff;}.cls-2{fill:#00db92;}</style></defs><title>Logo-light</title><g id="Layer_2" data-name="Layer 2"><g id="Layer_1-2" data-name="Layer 1"><path class="cls-1" d="M29.12,39.6h-9.5L9.27,0h9.33L25,17l1.85,1,5-18H39.9l6.56,17H47L53,0h9.53L52.17,39.6H42.73L36.11,18.15h-.49Z"/><path class="cls-2" d="M19.84,39.6h-9.5L0,0H9.33l6.39,17h.49L22.56,0h8.91l5.72,17h.49l6-17h9.53L42.9,39.6H33.45L26.84,18.15h-.49Z"/><path class="cls-1" d="M31,0H39.9l6.56,17H47L53,0h9.53L52.17,39.6H42.73L36.11,18.15h-.49L29.12,39.6h-9.5"/></g></g></svg>