<svg xmlns="http://www.w3.org/2000/svg" viewBox="0 0 888.17 142.79"><defs><style>.cls-1{fill:#00db92;}</style></defs><title>TextLogo</title><g id="Layer_2" data-name="Layer 2"><g id="Layer_1-2" data-name="Layer 1"><path d="M103.61,140.92H69.82L33,0H66.21L89,60.46l6.58,3.65L113.27,0H142l23.34,60.46h1.76L188.54,0h33.91L185.64,140.92H152L128.51,64.59h-1.76Z"/><path class="cls-1" d="M70.61,140.92H36.82L0,0H33.21L56,60.46h1.76L80.27,0H112l20.34,60.46h1.76L155.54,0h33.91L152.64,140.92H119L95.51,64.59H93.75Z"/><path d="M110.27,0H142l23.34,60.46h1.76L188.54,0h33.91L185.64,140.92H152L128.51,64.59h-1.76l-23.14,76.33H69.82"/><path d="M286.53,98.85c0-8.85-4.65-11.7-12-11.7-6.75,0-11.25,3.75-13.95,7V141h-23.1v-100h23.1V77.4c4.35-5.1,12.9-10.65,25-10.65,16.5,0,24,9.3,24,22.65V141h-23.1Z"/><path d="M324.78,48A13.2,13.2,0,1,1,338,61.2,13.12,13.12,0,0,1,324.78,48Zm1.65,20.55h23.1V141h-23.1Z"/><path d="M371.13,121.49V88.65h-12V68.55h12V48.75h22.95v19.8h14.7v20.1h-14.7V115c0,4.2,2.4,7.35,6.45,7.35,2.55,0,5.1-.9,5.85-1.8l4.5,17.4c-2.85,2.7-8.55,4.8-17.1,4.8C379.08,142.79,371.13,135.44,371.13,121.49Z"/><path d="M454.08,66.75c21.45,0,37,15.75,37,40.35V112h-51.6c1.35,6.75,7.65,12.9,18.45,12.9,6.45,0,13.65-2.55,17.7-6.15l9.75,14.4c-7.2,6.45-19.2,9.6-30.3,9.6-22.35,0-39.6-14.55-39.6-38.1C415.53,83.7,431.43,66.75,454.08,66.75ZM439.23,97h29.85c-.6-5.1-4.35-12.45-15-12.45C444,84.6,440.13,91.8,439.23,97Z"/><path d="M502.53,40.95h23.1V77.1a26.71,26.71,0,0,1,21.45-10.35c18,0,31.95,14.25,31.95,37.95,0,24.6-14.1,38.1-31.95,38.1-8.1,0-15.45-3.3-21.45-10.2V141h-23.1Zm36.9,81.45c9.15,0,16-6.75,16-17.7s-6.9-17.55-16-17.55c-4.95,0-10.95,2.7-13.8,6.6v22.2C528.48,119.84,534.48,122.39,539.43,122.39Z"/><path d="M586.38,104.7c0-20.4,14.85-37.95,39.45-37.95,24.9,0,39.6,17.55,39.6,37.95s-14.7,38.1-39.6,38.1C601.23,142.79,586.38,125.09,586.38,104.7Zm55.35,0c0-9.6-5.7-17.55-15.9-17.55-10,0-15.6,7.95-15.6,17.55s5.55,17.7,15.6,17.7C636,122.39,641.72,114.44,641.72,104.7Z"/><path d="M720.32,133.79c-4.5,5.4-13.2,9-22.5,9-11.1,0-24.9-7.5-24.9-23.85,0-17.55,13.8-22.8,24.9-22.8,9.6,0,18.15,3,22.5,8.4V95.4c0-6.3-5.4-10.5-14.7-10.5a32.31,32.31,0,0,0-20.55,7.65L676.82,78c9.3-7.95,21.75-11.25,32.85-11.25,17.4,0,33.75,6.45,33.75,28.95V141h-23.1Zm0-17.85c-2.4-3.3-7.8-5.1-12.9-5.1-6.15,0-11.55,2.7-11.55,8.4s5.4,8.4,11.55,8.4c5.1,0,10.5-1.8,12.9-5.25Z"/><path d="M760.22,68.55h23.1V77.7c4.8-5.85,13.95-10.95,22.65-10.95V89.1a18.7,18.7,0,0,0-5.7-.75c-6,0-13.95,2.55-16.95,6.75V141h-23.1Z"/><path d="M865.22,132.59c-6,6.9-13.35,10.2-21.45,10.2-17.85,0-32.1-13.5-32.1-38.1,0-23.7,13.95-37.95,32.1-37.95A26.91,26.91,0,0,1,865.22,77.1V40.95h22.95V141H865.22Zm0-39c-3-3.9-9-6.45-13.95-6.45-9.15,0-15.9,6.75-15.9,17.55s6.75,17.7,15.9,17.7c5,0,10.95-2.7,13.95-6.6Z"/></g></g></svg>