<svg xmlns="http://www.w3.org/2000/svg" viewBox="0 0 249.61 40.13"><defs><style>.cls-1{fill:#fff;}.cls-2{fill:#00db92;}</style></defs><title>TextLogo-light</title><g id="Layer_2" data-name="Layer 2"><g id="Layer_1-2" data-name="Layer 1"><path class="cls-1" d="M29.12,39.6h-9.5L9.27,0h9.33L25,17l1.85,1,5-18H39.9l6.56,17H47L53,0h9.53L52.17,39.6H42.73L36.11,18.15h-.49Z"/><path class="cls-2" d="M19.84,39.6h-9.5L0,0H9.33l6.39,17h.49L22.56,0h8.91l5.72,17h.49l6-17h9.53L42.9,39.6H33.45L26.84,18.15h-.49Z"/><path class="cls-1" d="M31,0H39.9l6.56,17H47L53,0h9.53L52.17,39.6H42.73L36.11,18.15h-.49L29.12,39.6h-9.5"/><path class="cls-1" d="M80.53,27.78c0-2.49-1.31-3.29-3.37-3.29a5,5,0,0,0-3.92,2V39.62H66.74V11.5h6.49V21.75a9.21,9.21,0,0,1,7-3c4.64,0,6.75,2.61,6.75,6.37v14.5H80.53Z"/><path class="cls-1" d="M91.27,13.48A3.71,3.71,0,1,1,95,17.19,3.69,3.69,0,0,1,91.27,13.48Zm.46,5.78h6.49V39.62H91.74Z"/><path class="cls-1" d="M104.3,34.14V24.91h-3.37V19.26h3.37V13.7h6.45v5.56h4.13v5.65h-4.13v7.42a1.84,1.84,0,0,0,1.81,2.06,2.52,2.52,0,0,0,1.64-.51l1.26,4.89c-.8.76-2.4,1.35-4.81,1.35C106.53,40.13,104.3,38.06,104.3,34.14Z"/><path class="cls-1" d="M127.61,18.75c6,0,10.41,4.43,10.41,11.34v1.39h-14.5c.38,1.9,2.15,3.63,5.19,3.63a8.06,8.06,0,0,0,5-1.73l2.74,4c-2,1.81-5.4,2.7-8.52,2.7-6.28,0-11.13-4.09-11.13-10.71A10.51,10.51,0,0,1,127.61,18.75Zm-4.17,8.52h8.39a3.91,3.91,0,0,0-4.22-3.5A4,4,0,0,0,123.44,27.27Z"/><path class="cls-1" d="M141.23,11.5h6.49V21.66a7.51,7.51,0,0,1,6-2.91c5.06,0,9,4,9,10.67,0,6.91-4,10.71-9,10.71a7.78,7.78,0,0,1-6-2.87v2.36h-6.49ZM151.6,34.4c2.57,0,4.51-1.9,4.51-5s-1.94-4.93-4.51-4.93a5.18,5.18,0,0,0-3.88,1.85v6.24A5.15,5.15,0,0,0,151.6,34.4Z"/><path class="cls-1" d="M164.79,29.42c0-5.73,4.17-10.67,11.09-10.67S187,23.69,187,29.42s-4.13,10.71-11.13,10.71S164.79,35.15,164.79,29.42Zm15.56,0c0-2.7-1.6-4.93-4.47-4.93s-4.38,2.23-4.38,4.93,1.56,5,4.38,5S180.35,32.16,180.35,29.42Z"/><path class="cls-1" d="M202.43,37.6a8.41,8.41,0,0,1-6.32,2.53c-3.12,0-7-2.11-7-6.7,0-4.93,3.88-6.41,7-6.41,2.7,0,5.1.84,6.32,2.36V26.81c0-1.77-1.52-3-4.13-3A9.08,9.08,0,0,0,192.53,26l-2.32-4.09a14.36,14.36,0,0,1,9.23-3.16c4.89,0,9.49,1.81,9.49,8.14V39.62h-6.49Zm0-5a4.63,4.63,0,0,0-3.63-1.43c-1.73,0-3.25.76-3.25,2.36s1.52,2.36,3.25,2.36a4.52,4.52,0,0,0,3.63-1.48Z"/><path class="cls-1" d="M213.65,19.26h6.49v2.57a8.88,8.88,0,0,1,6.37-3.08V25a5.27,5.27,0,0,0-1.6-.21c-1.69,0-3.92.72-4.76,1.9v12.9h-6.49Z"/><path class="cls-1" d="M243.15,37.26a7.78,7.78,0,0,1-6,2.87c-5,0-9-3.79-9-10.71,0-6.66,3.92-10.67,9-10.67a7.56,7.56,0,0,1,6,2.91V11.5h6.45V39.62h-6.45Zm0-11a5.3,5.3,0,0,0-3.92-1.81c-2.57,0-4.47,1.9-4.47,4.93s1.9,5,4.47,5a5.34,5.34,0,0,0,3.92-1.85Z"/></g></g></svg>