<svg xmlns="http://www.w3.org/2000/svg" viewBox="0 0 1509.7 1509.7"><defs><style>.cls-1,.cls-2{fill:none;stroke:#fff;stroke-miterlimit:10;}.cls-1{stroke-width:24px;}.cls-2{stroke-width:14px;}</style></defs><title>architecture</title><g id="Layer_2" data-name="Layer 2"><g id="Layer_1-2" data-name="Layer 1"><circle class="cls-1" cx="754.85" cy="754.85" r="742.85"/><path class="cls-2" d="M1066.53,381.16h193.39V870H1480.3M432.85,889.83H578.12V232.76H907.23v491.1h159.3V383.07M47.72,967.48h90.9v-308H432.85V890.61m-51-4.58V712.16H311V886ZM256.25,712.89H185.6V885.14h70.65ZM186.92,935.23V1109h70.24V935.23ZM641,520.39v173.7h70.26V520.39ZM778.25,282.87V456.69h70.14V282.87Zm-66.43.35H640.77V456.77h71.05ZM641,1203.07v173.7h70.26v-173.7ZM778.25,965.55v173.82h70.14V965.55Zm-66.43.35H640.77v173.55h71.05Zm394.25-91.57H1035v173.55h71.05ZM1202.17,432h-71.05V605.56h71.05Z"/></g></g></svg>