<svg xmlns="http://www.w3.org/2000/svg" viewBox="0 0 1509.7 1685.87"><defs><style>.cls-1,.cls-2{fill:none;stroke:#fff;stroke-miterlimit:10;}.cls-1{stroke-width:24px;}.cls-2{stroke-width:14px;fill-rule:evenodd;}</style></defs><title>Asset 1</title><g id="Layer_2" data-name="Layer 2"><g id="Layer_1-2" data-name="Layer 1"><circle class="cls-1" cx="754.85" cy="794.69" r="742.85"/><path class="cls-2" d="M511.73,881.85,903.86,695.7c11.17,13.13,37.65,44.4,49,57.8,36.27-34.29,66.56-72.7,92.6-115.24l64,35c-32.6,54.88-72.65,103.28-120,146.25,1.76,2.12,3.33,4.07,5,6,3.68,4.29,7.39,8.56,11.41,13.2a651.62,651.62,0,0,0,125.91-153.18l64.21,35.21a728.48,728.48,0,0,1-142.71,173.79l70.92,83.21,11.83-10.9c109.44,126.39,212.87,257.56,318.5,388l-4.77,4.43-138.1-146.54c-4.34,3.62-8.61,6.71-12.29,10.4-3,3-5.29,2.84-8.66.57q-51.77-34.84-103.71-69.41c-3.53-2.35-7-4.9-10.62-7-19.21-11-34.41-26.21-48.46-43.13-20.14-24.27-41.24-47.73-61.93-71.54-.82-.94-1.57-1.93-2.84-3.49l12-11.26-70.7-83.29c-115.33,84.3-243.86,131.73-386.5,142.23.23,33.94.46,67.73.7,101.93l15.51.42c.27,11.12.67,21.88.78,32.64.29,30,1.26,60,.42,89.95-.62,22.19-3.52,44.32-5.66,66.46Q621,1457,612.14,1545.91c-.1,1-.27,2.09-.48,3.65l-8.59.7-9.13,127.66c-5.64,2.48-6.77-.21-7.16-4.85q-4.73-56.33-9.69-112.62c-.27-3.14-.55-6.29-.86-9.86l-8.74-.75-5.9-52.21c-5.21-46.06-9.75-92.21-15.82-138.16-5.83-44.16-5.71-88.47-5.89-132.82-.06-15.41-.11-30.82-.17-47l15.59-.36c-.1-15.05-.19-29.6-.28-44.15-.11-18.21-.32-36.41-.24-54.61,0-4.14-1.09-6.17-5.21-7.95-30.71-13.26-49.34-36.52-53.14-69.81C492.53,968.47,506,941.19,534,921c1.81-1.3,4-3.7,4-5.61.14-22.6-.15-70.71-.29-93.18m0,0c.15-6.79.47-13.28.4-19.77q-.94-89.15-2-178.31-.44-42.57-.5-85.14c0-4.36-1.4-6.1-5.57-7.52-52.05-17.71-87.65-52.7-102.74-105.4-16.89-59-2.74-111.8,40.38-155.76,9.77-10,22.45-17.09,33.79-25.52l3.64-2.71-6.08-16.33-22.19,8.26L405.13,41.26,491.78,9l71.65,192.47-22.15,8.25,6.17,16.57c13.73-.4,27.5-2.12,41-1,56.68,4.87,100.3,31.52,127.32,82,28,52.18,26,104.59-3.5,155.89-2,3.45-1.88,5.66.83,8.83q51.2,59.81,102.1,119.89,43.24,50.8,86.54,101.55c.54.63,1.12,1.2,2.1,2.25M879.72,812.38c-1.6-2.25-2.68-4-4-5.6q-35.39-41.56-70.85-83.07-42.66-50-85.29-100.1-39.09-45.95-78.09-92c-2.17-2.56-4.1-4.25-8-2.69-3.67,1.45-4.69,3.44-4.65,7.08q.6,64.14,1,128.28.71,96.53,1.44,193c.12,15.16.31,30.32.48,46C721.93,892.62,804.22,862.54,879.72,812.38Zm60.65,47.15c-1.49.91-2.42,1.4-3.27,2a590.53,590.53,0,0,1-96.65,57.23,636.23,636.23,0,0,1-220,59.1c-3.72.31-5.64-.73-7.46-4-9.84-17.79-33.4-23.81-50.84-13.24-13.17,8-20.35,24.19-17.19,38.8a37.23,37.23,0,0,0,32,29.52,36,36,0,0,0,37.1-20.26c2.05-4.29,4.56-5.6,9-6.06,18.09-1.89,36.35-3.15,54.14-6.7,28-5.61,56-12,83.52-19.66a520.69,520.69,0,0,0,100-39.56c25.9-13.41,50.66-29.08,75.76-44,7-4.14,13.32-9.28,20.14-14.08Z"/></g></g></svg>