<svg xmlns="http://www.w3.org/2000/svg" viewBox="0 0 1509.7 1509.7"><defs><style>.cls-1,.cls-2{fill:none;stroke:#fff;stroke-miterlimit:10;}.cls-1{stroke-width:14px;}.cls-2{stroke-width:24px;}</style></defs><title>portrait</title><g id="Layer_2" data-name="Layer 2"><g id="Layer_1-2" data-name="Layer 1"><path class="cls-1" d="M1282.93,1277.29c-1-40.68-1.05-33-2.05-73.67-.49-20.07-.95-40.13-1.24-60.2-.25-17-3.5-32.34-13.54-46.33-8.88-12.37-20.89-22.19-33.37-30.73a488.72,488.72,0,0,0-47.14-28c-34.42-18.25-70.37-33.45-106.63-47.62-37.08-14.49-74.76-27.52-111.45-43q-13.72-5.79-27.2-12.13c-8.26-3.87-16.85-7.56-24.37-12.79-14.11-9.8-20.44-25.28-22.58-41.83-2.48-19.17-2.25-38.82-2.35-58.11-.09-17.71-1-36.16,4.49-53.25,2.75-8.58,7.41-15.9,12.87-23a185.36,185.36,0,0,0,15.57-23c9.16-16.48,15.36-34.34,20.2-52.52s8.4-36.51,12.9-54.69c4.7-19,11-37.44,17.83-55.78,6.64-17.91,14.37-35.9,17.65-54.82,3.39-19.5.75-39.91-1.13-59.45-1-10-2-20-1.85-30.1s1.23-20.08,2.39-30.08c2.31-20,4.54-40,3.45-60.2a210.21,210.21,0,0,0-33.86-103.49c-18.75-28.43-44.54-51.8-73.9-68.91C856.12,135.33,821,125,784.85,121.54c-37.13-3.59-75.61-.87-111.47,9.69-33.62,9.9-64.93,27.07-90.6,51A222.38,222.38,0,0,0,526,268.05a192.11,192.11,0,0,0-12,56.22c-1.05,20,1.33,39.86,3.52,59.67,1.1,10,1.84,20,3,29.93,1.08,9.43,3.28,19.22,1.1,28.65-1.08,4.67-3,9.11-4.16,13.74a108.18,108.18,0,0,0-2.66,14.35,121.56,121.56,0,0,0,0,27.92c4.19,37.69,23.29,71.25,34.62,106.92C561,641.86,563.29,681.24,581,715.63a128.38,128.38,0,0,0,14.93,22.51c5.77,7.08,11.45,14.07,15.36,22.4,8.09,17.18,8.83,36.48,8.57,55.14s.34,38-1.95,56.65c-2,16.71-7.57,32.29-19.64,44.39-12.43,12.45-6.11,20.15-22.15,26.79-18.34,7.59-60,14.5-78.52,21.75-37.17,14.58-74.44,29-111.37,44.18-35.67,14.67-71.07,30.83-103,52.71-13.91,9.54-28.67,19.8-39.25,33.11a51.72,51.72,0,0,0-10.86,23.09c-1.7,9.37-1.41,19.12-1.76,28.61q-2.25,61-4.25,121.93c-1.1,33,1.11-33,0,0"/><circle class="cls-2" cx="754.85" cy="754.85" r="742.85"/></g></g></svg>